<?xml version="1.0" encoding="utf-8"?>
<!-- Generator: Adobe Illustrator 24.1.2, SVG Export Plug-In . SVG Version: 6.00 Build 0)  -->
<svg version="1.1" xmlns="http://www.w3.org/2000/svg" xmlns:xlink="http://www.w3.org/1999/xlink" x="0px" y="0px"
	 viewBox="0 0 1400 700" style="enable-background:new 0 0 1400 700;" xml:space="preserve">
<style type="text/css">
	.st0{fill:#AF6D19;}
	.st1{fill:none;stroke:#000000;stroke-miterlimit:10;}
	.st2{fill:#AF6D19;stroke:#000000;stroke-miterlimit:10;}
</style>
<g id="Pen_color">
	<path class="st0" d="M-0.5,526.5h970L1014,582v13l-44.5,0.5L848,595l-0.5,40.5c0,0-1.5,8.5-50.5,1.5l-0.5-42.5l-666,1v31
		c0,0-6,7-60,1v-32h-71V526.5z"/>
</g>
<g id="Pier_base">
	<path class="st1" d="M770.26,526.24c66.87-0.27,133.03-0.21,199.74,0.2"/>
	<path class="st2" d="M771,526.23c-256.87,0.53-513.93,0.2-771.29,0.44"/>
	<polyline class="st1" points="0,582.81 363.83,582.81 970,582.81 	"/>
	<line class="st1" x1="44" y1="527" x2="-0.2" y2="571.43"/>
	<line class="st1" x1="103" y1="527" x2="47" y2="583"/>
	<line class="st1" x1="182" y1="527" x2="126.17" y2="582.96"/>
	<line class="st1" x1="243" y1="527" x2="188" y2="583"/>
	<line class="st1" x1="325.5" y1="526.5" x2="268.93" y2="582.94"/>
	<line class="st1" x1="509" y1="527" x2="538.5" y2="582.5"/>
	<line class="st1" x1="592.5" y1="526.5" x2="641" y2="583"/>
	<line class="st1" x1="672" y1="527" x2="728" y2="583"/>
	<path class="st1" d="M770,526c18.84,18.84,37.92,37.92,57,57"/>
	<line class="st1" x1="882" y1="526" x2="932" y2="583"/>
	<path class="st1" d="M969.95,595.47C647,592.78,323,596.22,0,595.56"/>
	<path class="st1" d="M969.87,526"/>
	<path class="st1" d="M969.87,595.93"/>
	<line class="st1" x1="390" y1="527" x2="344.5" y2="582.5"/>
	<g id="XMLID_1_">
		<g>
		</g>
		<g>
			<polyline class="st1" points="70.32,595.66 70.32,627.49 70.32,628.1 			"/>
			<path class="st1" d="M130.71,595.4v31.28c-2.2,1.3-4.37,1.83-6.87,2.39c-2.94,0.66-5.97,0.78-8.98,0.85
				c-14.88,0.35-29.78-0.47-44.54-2.43c-0.11-0.01-0.21-0.03-0.32-0.04"/>
		</g>
	</g>
	<line class="st1" x1="796.97" y1="594.35" x2="796.5" y2="637"/>
	<path class="st1" d="M848,594v41.59c-1.86,1.72-3.7,2.43-5.81,3.18c-2.48,0.88-5.04,1.04-7.59,1.13
		c-12.66,0.46-25.35-0.64-37.9-3.29"/>
	<line class="st1" x1="47.64" y1="582.74" x2="47.64" y2="595.4"/>
	<line class="st1" x1="126.76" y1="582.74" x2="126.76" y2="595.53"/>
	<line class="st1" x1="188.87" y1="582.6" x2="188.87" y2="595.7"/>
	<line class="st1" x1="269.57" y1="582.74" x2="269.57" y2="595.06"/>
	<line class="st1" x1="344.5" y1="582.5" x2="344.5" y2="596"/>
	<line class="st1" x1="433.5" y1="582.5" x2="433.5" y2="595"/>
	<line class="st1" x1="538.5" y1="582.5" x2="538.5" y2="595"/>
	<line class="st1" x1="640.38" y1="582.47" x2="640.38" y2="594.41"/>
	<polyline class="st1" points="727.53,582.7 727.53,594.38 728.03,594.37 	"/>
	<line class="st1" x1="826.68" y1="582.51" x2="826.68" y2="594.78"/>
	<line class="st1" x1="931.32" y1="582.31" x2="931.32" y2="595.17"/>
	<polyline class="st1" points="969.5,526.5 1014.5,582.5 969.5,582.81 	"/>
	<polyline class="st1" points="969.5,595.5 1014.5,595.5 1014.5,582.5 	"/>
	<line class="st1" x1="433.5" y1="582.5" x2="450.5" y2="526.5"/>
</g>
</svg>
